<?xml version="1.0" standalone="no"?><!DOCTYPE svg PUBLIC "-//W3C//DTD SVG 1.1//EN" "http://www.w3.org/Graphics/SVG/1.1/DTD/svg11.dtd"><svg class="icon" height="512" viewBox="0 0 1024 1024" version="1.1" xmlns="http://www.w3.org/2000/svg"><path d="M512 1024C228.693333 1024 0 795.306667 0 512S228.693333 0 512 0s512 228.693333 512 512-228.693333 512-512 512z m201.386667-632.604444c19.342222-19.342222 19.342222-51.2 0-70.542223-19.342222-19.342222-51.2-19.342222-70.542223 0l-125.155555 126.293334-126.293333-125.155556c-19.342222-19.342222-51.2-19.342222-70.542223 0-19.342222 19.342222-19.342222 51.2 0 70.542222l126.293334 126.293334-125.155556 125.155555c-19.342222 19.342222-19.342222 51.2 0 70.542222 19.342222 19.342222 51.2 19.342222 70.542222 0l126.293334-126.293333 126.293333 126.293333c19.342222 19.342222 51.2 19.342222 70.542222 0 19.342222-19.342222 19.342222-51.2 0-70.542222L587.093333 517.688889l126.293334-126.293333z" fill="#F46161" /></svg>